<svg width="599.5199829101563px" height="117.239990234375px" xmlns="http://www.w3.org/2000/svg" viewBox="-49.759991455078136 16.3800048828125 599.5199829101563 117.239990234375" style="background: rgba(0, 0, 0, 0) none repeat scroll 0% 0%;" preserveAspectRatio="xMidYMid"><defs><filter id="editing-extrusion" x="-100%" y="-100%" width="300%" height="300%"><feFlood result="color1" flood-color="#444"></feFlood><feConvolveMatrix order="8,8" divisor="1" kernelMatrix="1 0 0 0 0 0 0 0 0 1 0 0 0 0 0 0 0 0 1 0 0 0 0 0 0 0 0 1 0 0 0 0 0 0 0 0 1 0 0 0 0 0 0 0 0 1 0 0 0 0 0 0 0 0 1 0 0 0 0 0 0 0 0 1" in="SourceAlpha" result="extrude"></feConvolveMatrix><feComposite in="color1" in2="extrude" result="comp-extrude" operator="in"></feComposite><feOffset dx="4" dy="4" in="comp-extrude" result="offset-extrude"></feOffset><feMerge><feMergeNode in="offset-extrude"></feMergeNode><feMergeNode in="SourceGraphic"></feMergeNode></feMerge></filter></defs><g filter="url(#editing-extrusion)"><g transform="translate(37.16720175743103, 103.30999946594238)"><path d="M23.97-13.50L22.90-18.48L12.49-18.48L12.49-2.52L28.73-2.52L29.90-9.97L29.90-9.97Q31.02-10.19 31.86-9.80L31.86-9.80L31.86-9.80Q32.65-6.50 32.54 0L32.54 0L9.69 0L9.69 0Q7.45 0 2.24 0.28L2.24 0.28L2.24 0.28Q2.07-0.78 2.35-1.68L2.35-1.68L2.35-1.68Q5.26-2.24 6.61-2.80L6.61-2.80L6.61-36.40L2.30-37.52L2.30-37.52Q2.13-38.58 2.58-39.48L2.58-39.48L2.58-39.48Q7.62-39.20 9.41-39.20L9.41-39.20L30.97-39.20L30.97-39.20Q31.08-33.49 30.35-29.40L30.35-29.40L30.35-29.40Q29.51-29.06 28.34-29.23L28.34-29.23L26.88-36.68L12.49-36.68L12.49-21.56L22.90-21.56L23.97-26.49L23.97-26.49Q25.26-26.88 26.21-26.21L26.21-26.21L26.21-26.21Q25.98-24.02 25.98-20.22L25.98-20.22L25.98-20.22Q25.98-16.02 26.21-13.61L26.21-13.61L26.21-13.61Q25.20-13.22 23.97-13.50L23.97-13.50ZM45.98-28.06L45.98-28.06L45.81-24.25L45.86-24.19L45.86-24.19Q50.57-28.78 56.39-28.90L56.39-28.90L56.39-28.90Q60.09-28.90 62.16-26.80L62.16-26.80L62.16-26.80Q64.23-24.70 64.23-20.78L64.23-20.78L64.29-2.80L68.21-1.68L68.21-1.68Q68.38-0.62 67.93 0.28L67.93 0.28L67.93 0.28Q63.45 0 61.49 0L61.49 0L61.49 0Q59.47 0 54.88 0.28L54.88 0.28L54.88 0.28Q54.71-0.78 54.99-1.68L54.99-1.68L54.99-1.68Q56.73-2.02 58.69-2.80L58.69-2.80L58.69-18.26L58.69-18.26Q58.69-21.95 57.54-23.46L57.54-23.46L57.54-23.46Q56.39-24.98 53.76-24.98L53.76-24.98L53.76-24.98Q49.22-24.98 46.26-21.62L46.26-21.62L46.26-2.80L50.01-1.68L50.01-1.68Q50.18-0.62 49.73 0.28L49.73 0.28L49.73 0.28Q45.25 0 43.46 0L43.46 0L43.46 0Q41.78 0 36.62 0.28L36.62 0.28L36.62 0.28Q36.46-0.78 36.74-1.68L36.74-1.68L36.74-1.68Q39.42-2.35 40.66-2.80L40.66-2.80L40.66-24.64L36.01-25.09L36.01-25.09Q35.84-26.21 36.29-27.05L36.29-27.05L36.29-27.05Q40.60-27.78 44.07-28.56L44.07-28.56L44.07-28.56Q45.02-28.50 45.98-28.06ZM84.73-2.13L84.73-2.13L84.73-2.13Q88.31-2.13 91.11-5.10L91.11-5.10L91.11-24.58L91.11-24.58Q88.98-26.38 85.57-26.38L85.57-26.38L85.57-26.38Q81.31-26.38 79.13-23.13L79.13-23.13L79.13-23.13Q76.94-19.88 76.94-14L76.94-14L76.94-14Q76.94-8.12 78.90-5.12L78.90-5.12L78.90-5.12Q80.86-2.13 84.73-2.13ZM96.71-41.72L96.71-41.72L96.71-2.69L96.71-2.69Q97.66-1.85 100.63-1.57L100.63-1.57L100.63-1.57Q100.63-1.46 100.66-1.29L100.66-1.29L100.66-1.29Q100.69-1.12 100.69-1.01L100.69-1.01L100.69-1.01Q100.69-0.28 100.35 0.39L100.35 0.39L100.35 0.39Q98.39 0.78 95.65 0.78L95.65 0.78L95.65 0.78Q93.80 0.78 92.46 0.45L92.46 0.45L92.46 0.45Q92.06-0.17 91.78-0.90L91.78-0.90L91.78-0.90Q91.50-1.62 91.39-2.52L91.39-2.52L91.11-2.52L91.11-2.52Q88.98-0.56 86.83 0.28L86.83 0.28L86.83 0.28Q84.67 1.12 82.43 1.12L82.43 1.12L82.43 1.12Q80.02 1.12 77.92 0L77.92 0L77.92 0Q75.82-1.12 74.28-3.11L74.28-3.11L74.28-3.11Q72.74-5.10 71.88-7.76L71.88-7.76L71.88-7.76Q71.01-10.42 71.01-13.50L71.01-13.50L71.01-13.50Q71.01-17.14 71.99-20.02L71.99-20.02L71.99-20.02Q72.97-22.90 74.82-24.92L74.82-24.92L74.82-24.92Q76.66-26.94 79.27-28L79.27-28L79.27-28Q81.87-29.06 85.12-29.06L85.12-29.06L85.12-29.06Q88.31-29.06 91.11-27.66L91.11-27.66L91.28-27.66L91.28-38.42L86.63-38.86L86.63-38.86Q86.58-39.03 86.58-39.42L86.58-39.42L86.58-39.42Q86.58-40.15 86.91-40.82L86.91-40.82L86.91-40.82Q90.94-41.38 94.47-42.34L94.47-42.34L94.47-42.34Q95.65-42.22 96.71-41.72ZM112-28.11L112-28.11L111.94-25.87L112.22-25.59L112.22-25.59Q116.20-29.12 120.62-29.12L120.62-29.12L120.62-29.12Q125.94-29.06 129.08-24.92L129.08-24.92L129.08-24.92Q132.22-20.78 132.27-14.73L132.27-14.73L132.27-14.73Q132.27-7.06 128.49-3.00L128.49-3.00L128.49-3.00Q124.71 1.06 117.94 1.06L117.94 1.06L117.94 1.06Q115.25 1.01 112.22-0.17L112.22-0.17L112.22 11.20L117.10 12.32L117.10 12.32Q117.26 13.38 116.82 14.28L116.82 14.28L116.82 14.28Q111.78 14 109.42 14L109.42 14L109.42 14Q107.24 14 102.59 14.28L102.59 14.28L102.59 14.28Q102.42 13.22 102.70 12.32L102.70 12.32L102.70 12.32Q105.39 11.76 106.62 11.20L106.62 11.20L106.62-24.64L102.03-25.09L102.03-25.09Q101.86-26.21 102.31-27.05L102.31-27.05L102.31-27.05Q104.72-27.33 110.04-28.56L110.04-28.56L110.04-28.56Q110.94-28.50 112-28.11ZM112.22-22.62L112.22-22.62L112.22-3.30L112.22-3.30Q114.86-1.51 117.82-1.51L117.82-1.51L117.82-1.51Q121.97-1.51 124.15-4.87L124.15-4.87L124.15-4.87Q126.34-8.23 126.34-14.39L126.34-14.39L126.34-14.39Q126.34-20.05 124.38-22.90L124.38-22.90L124.38-22.90Q122.42-25.76 118.94-25.76L118.94-25.76L118.94-25.76Q116.98-25.76 115.02-24.78L115.02-24.78L115.02-24.78Q113.06-23.80 112.22-22.62ZM136.47-14L136.47-14L136.47-14Q136.47-21 140.56-25.09L140.56-25.09L140.56-25.09Q144.65-29.18 150.58-29.12L150.58-29.12L150.58-29.12Q157.08-29.12 160.89-24.81L160.89-24.81L160.89-24.81Q164.70-20.50 164.70-14L164.70-14L164.70-14Q164.70-6.89 160.66-2.86L160.66-2.86L160.66-2.86Q156.63 1.18 150.58 1.12L150.58 1.12L150.58 1.12Q143.92 1.12 140.20-3.19L140.20-3.19L140.20-3.19Q136.47-7.50 136.47-14ZM158.65-13.22L158.65-13.22L158.65-13.22Q158.76-18.54 156.74-22.62L156.74-22.62L156.74-22.62Q154.73-26.71 150.47-26.71L150.47-26.71L150.47-26.71Q146.33-26.71 144.40-23.10L144.40-23.10L144.40-23.10Q142.46-19.49 142.52-13.61L142.52-13.61L142.52-13.61Q142.52-11.03 143.00-8.79L143.00-8.79L143.00-8.79Q143.47-6.55 144.48-4.87L144.48-4.87L144.48-4.87Q145.49-3.19 147.03-2.24L147.03-2.24L147.03-2.24Q148.57-1.29 150.70-1.29L150.70-1.29L150.70-1.29Q154.17-1.23 156.41-4.09L156.41-4.09L156.41-4.09Q158.65-6.94 158.65-13.22ZM170.46-37.46L170.46-37.46L170.46-37.46Q170.46-38.53 171.75-39.65L171.75-39.65L171.75-39.65Q173.04-40.77 174.44-40.77L174.44-40.77L174.44-40.77Q175.84-40.77 176.85-39.51L176.85-39.51L176.85-39.51Q177.86-38.25 177.86-36.96L177.86-36.96L177.86-36.96Q177.86-35.84 176.60-34.75L176.60-34.75L176.60-34.75Q175.34-33.66 173.88-33.66L173.88-33.66L173.88-33.66Q172.59-33.66 171.53-34.92L171.53-34.92L171.53-34.92Q170.46-36.18 170.46-37.46ZM178.19-27.94L178.19-27.94L178.19-2.80L181.94-1.68L181.94-1.68Q182.11-0.62 181.66 0.28L181.66 0.28L181.66 0.28Q176.62 0 175.39 0L175.39 0L175.39 0Q173.71 0 168.56 0.28L168.56 0.28L168.56 0.28Q168.39-0.78 168.67-1.68L168.67-1.68L168.67-1.68Q171.81-2.41 172.59-2.80L172.59-2.80L172.59-24.64L167.94-25.09L167.94-25.09Q167.78-26.21 168.22-27.05L168.22-27.05L168.22-27.05Q172.87-27.72 176.06-28.56L176.06-28.56L176.06-28.56Q177.02-28.50 178.19-27.94ZM193.93-28.06L193.93-28.06L193.76-24.25L193.82-24.19L193.82-24.19Q198.52-28.78 204.34-28.90L204.34-28.90L204.34-28.90Q208.04-28.90 210.11-26.80L210.11-26.80L210.11-26.80Q212.18-24.70 212.18-20.78L212.18-20.78L212.24-2.80L216.16-1.68L216.16-1.68Q216.33-0.62 215.88 0.28L215.88 0.28L215.88 0.28Q211.40 0 209.44 0L209.44 0L209.44 0Q207.42 0 202.83 0.28L202.83 0.28L202.83 0.28Q202.66-0.78 202.94-1.68L202.94-1.68L202.94-1.68Q204.68-2.02 206.64-2.80L206.64-2.80L206.64-18.26L206.64-18.26Q206.64-21.95 205.49-23.46L205.49-23.46L205.49-23.46Q204.34-24.98 201.71-24.98L201.71-24.98L201.71-24.98Q197.18-24.98 194.21-21.62L194.21-21.62L194.21-2.80L197.96-1.68L197.96-1.68Q198.13-0.62 197.68 0.28L197.68 0.28L197.68 0.28Q193.20 0 191.41 0L191.41 0L191.41 0Q189.73 0 184.58 0.28L184.58 0.28L184.58 0.28Q184.41-0.78 184.69-1.68L184.69-1.68L184.69-1.68Q187.38-2.35 188.61-2.80L188.61-2.80L188.61-24.64L183.96-25.09L183.96-25.09Q183.79-26.21 184.24-27.05L184.24-27.05L184.24-27.05Q188.55-27.78 192.02-28.56L192.02-28.56L192.02-28.56Q192.98-28.50 193.93-28.06ZM228.20 0.90L228.20 0.90L228.20 0.90Q225.06 0.90 223.47-0.90L223.47-0.90L223.47-0.90Q221.87-2.69 221.87-6.66L221.87-6.66L221.87-24.53L217.95-24.53L217.95-24.53Q217.39-25.59 217.67-27.05L217.67-27.05L217.67-27.05Q220.81-26.99 222.07-28.31L222.07-28.31L222.07-28.31Q223.33-29.62 224.39-33.88L224.39-33.88L227.36-33.88L227.36-27.61L233.24-27.61L233.24-27.61Q234.02-25.98 233.24-24.53L233.24-24.53L227.36-24.53L227.36-8.06L227.36-8.06Q227.36-4.31 227.95-3.08L227.95-3.08L227.95-3.08Q228.54-1.85 230.16-1.90L230.16-1.90L230.16-1.90Q231.56-1.90 233.52-3.02L233.52-3.02L233.52-3.02Q234.30-2.52 234.36-1.34L234.36-1.34L234.36-1.34Q233.63-0.50 231.98 0.20L231.98 0.20L231.98 0.20Q230.33 0.90 228.20 0.90ZM240.41-8.40L240.41-8.40L240.97-2.46L240.97-2.46Q242.82-1.46 246.06-1.46L246.06-1.46L246.06-1.46Q248.53-1.46 250.24-2.52L250.24-2.52L250.24-2.52Q251.94-3.58 251.94-5.71L251.94-5.71L251.94-5.71Q251.94-7.62 250.26-9.04L250.26-9.04L250.26-9.04Q248.58-10.47 244.50-12.38L244.50-12.38L244.50-12.38Q240.97-14 239.32-16.07L239.32-16.07L239.32-16.07Q237.66-18.14 237.66-21.39L237.66-21.39L237.66-21.39Q237.66-25.20 240.41-27.10L240.41-27.10L240.41-27.10Q243.15-29.01 247.58-29.01L247.58-29.01L247.58-29.01Q251.89-29.01 255.75-27.44L255.75-27.44L255.75-27.44Q255.75-27.22 255.78-26.82L255.78-26.82L255.78-26.82Q255.81-26.43 255.81-26.21L255.81-26.21L255.81-26.21Q255.81-22.90 254.74-19.77L254.74-19.77L254.74-19.77Q254.18-19.66 253.90-19.66L253.90-19.66L253.90-19.66Q253.06-19.66 252.22-19.99L252.22-19.99L251.33-26.04L251.33-26.04Q249.59-26.54 247.74-26.54L247.74-26.54L247.74-26.54Q245.45-26.54 243.91-25.59L243.91-25.59L243.91-25.59Q242.37-24.64 242.31-22.51L242.31-22.51L242.31-22.51Q242.31-20.61 243.71-19.26L243.71-19.26L243.71-19.26Q245.11-17.92 248.98-16.07L248.98-16.07L248.98-16.07Q253.51-13.89 255.30-11.93L255.30-11.93L255.30-11.93Q257.10-9.97 257.10-7L257.10-7L257.10-7Q257.10-3.19 254.16-1.04L254.16-1.04L254.16-1.04Q251.22 1.12 246.46 1.12L246.46 1.12L246.46 1.12Q240.58 1.23 236.99-1.12L236.99-1.12L236.99-2.07L236.99-2.07Q236.94-5.60 238.00-8.62L238.00-8.62L238.00-8.62Q238.34-8.68 238.56-8.68L238.56-8.68L238.56-8.68Q239.57-8.68 240.41-8.40ZM286.66-2.80L286.66-2.80L286.66-36.68L277.93-36.68L276.30-28.67L276.30-28.67Q274.96-28.45 274.06-28.84L274.06-28.84L274.06-28.84Q273.34-35.28 273.50-39.20L273.50-39.20L306.26-39.20L306.26-39.20Q306.43-34.72 305.65-28.84L305.65-28.84L305.65-28.84Q304.75-28.45 303.41-28.67L303.41-28.67L301.78-36.68L292.54-36.68L292.54-2.80L297.19-1.68L297.19-1.68Q297.36-0.62 296.91 0.28L296.91 0.28L296.91 0.28Q291.87 0 289.74 0L289.74 0L289.74 0Q287.22 0 282.07 0.28L282.07 0.28L282.07 0.28Q281.90-0.84 282.18-1.68L282.18-1.68L282.18-1.68Q284.37-1.96 286.66-2.80ZM327.43-14.95L310.52-15.12L310.52-14L310.52-14Q310.52-8.40 312.79-5.26L312.79-5.26L312.79-5.26Q315.06-2.13 318.98-2.13L318.98-2.13L318.98-2.13Q321.50-2.13 323.01-2.60L323.01-2.60L323.01-2.60Q324.52-3.08 326.82-4.65L326.82-4.65L326.82-4.65Q327.71-4.26 327.82-3.30L327.82-3.30L327.82-3.30Q323.96 0.90 318.81 0.95L318.81 0.95L318.81 0.95Q312.37 0.95 308.50-3.08L308.50-3.08L308.50-3.08Q304.64-7.11 304.58-14L304.58-14L304.58-14Q304.64-21.06 308.64-25.00L308.64-25.00L308.64-25.00Q312.65-28.95 318.53-28.95L318.53-28.95L318.53-28.95Q323.29-28.95 325.78-25.73L325.78-25.73L325.78-25.73Q328.27-22.51 328.27-17.02L328.27-17.02L328.27-17.02Q328.27-16.07 328.22-15.57L328.22-15.57L327.43-14.95ZM318.47-26.54L318.47-26.54L318.47-26.54Q315.84-26.54 313.63-24.16L313.63-24.16L313.63-24.16Q311.42-21.78 310.74-17.42L310.74-17.42L322.95-18.09L322.95-18.09Q322.95-22.57 321.97-24.56L321.97-24.56L321.97-24.56Q320.99-26.54 318.47-26.54ZM335.83-8.40L335.83-8.40L336.39-2.46L336.39-2.46Q338.24-1.46 341.49-1.46L341.49-1.46L341.49-1.46Q343.95-1.46 345.66-2.52L345.66-2.52L345.66-2.52Q347.37-3.58 347.37-5.71L347.37-5.71L347.37-5.71Q347.37-7.62 345.69-9.04L345.69-9.04L345.69-9.04Q344.01-10.47 339.92-12.38L339.92-12.38L339.92-12.38Q336.39-14 334.74-16.07L334.74-16.07L334.74-16.07Q333.09-18.14 333.09-21.39L333.09-21.39L333.09-21.39Q333.09-25.20 335.83-27.10L335.83-27.10L335.83-27.10Q338.58-29.01 343-29.01L343-29.01L343-29.01Q347.31-29.01 351.18-27.44L351.18-27.44L351.18-27.44Q351.18-27.22 351.20-26.82L351.20-26.82L351.20-26.82Q351.23-26.43 351.23-26.21L351.23-26.21L351.23-26.21Q351.23-22.90 350.17-19.77L350.17-19.77L350.17-19.77Q349.61-19.66 349.33-19.66L349.33-19.66L349.33-19.66Q348.49-19.66 347.65-19.99L347.65-19.99L346.75-26.04L346.75-26.04Q345.02-26.54 343.17-26.54L343.17-26.54L343.17-26.54Q340.87-26.54 339.33-25.59L339.33-25.59L339.33-25.59Q337.79-24.64 337.74-22.51L337.74-22.51L337.74-22.51Q337.74-20.61 339.14-19.26L339.14-19.26L339.14-19.26Q340.54-17.92 344.40-16.07L344.40-16.07L344.40-16.07Q348.94-13.89 350.73-11.93L350.73-11.93L350.73-11.93Q352.52-9.97 352.52-7L352.52-7L352.52-7Q352.52-3.19 349.58-1.04L349.58-1.04L349.58-1.04Q346.64 1.12 341.88 1.12L341.88 1.12L341.88 1.12Q336.00 1.23 332.42-1.12L332.42-1.12L332.42-2.07L332.42-2.07Q332.36-5.60 333.42-8.62L333.42-8.62L333.42-8.62Q333.76-8.68 333.98-8.68L333.98-8.68L333.98-8.68Q334.99-8.68 335.83-8.40ZM365.90 0.90L365.90 0.90L365.90 0.90Q362.77 0.90 361.17-0.90L361.17-0.90L361.17-0.90Q359.58-2.69 359.58-6.66L359.58-6.66L359.58-24.53L355.66-24.53L355.66-24.53Q355.10-25.59 355.38-27.05L355.38-27.05L355.38-27.05Q358.51-26.99 359.77-28.31L359.77-28.31L359.77-28.31Q361.03-29.62 362.10-33.88L362.10-33.88L365.06-33.88L365.06-27.61L370.94-27.61L370.94-27.61Q371.73-25.98 370.94-24.53L370.94-24.53L365.06-24.53L365.06-8.06L365.06-8.06Q365.06-4.31 365.65-3.08L365.65-3.08L365.65-3.08Q366.24-1.85 367.86-1.90L367.86-1.90L367.86-1.90Q369.26-1.90 371.22-3.02L371.22-3.02L371.22-3.02Q372.01-2.52 372.06-1.34L372.06-1.34L372.06-1.34Q371.34-0.50 369.68 0.20L369.68 0.20L369.68 0.20Q368.03 0.90 365.90 0.90ZM397.43-14.95L380.52-15.12L380.52-14L380.52-14Q380.52-8.40 382.79-5.26L382.79-5.26L382.79-5.26Q385.06-2.13 388.98-2.13L388.98-2.13L388.98-2.13Q391.50-2.13 393.01-2.60L393.01-2.60L393.01-2.60Q394.52-3.08 396.82-4.65L396.82-4.65L396.82-4.65Q397.71-4.26 397.82-3.30L397.82-3.30L397.82-3.30Q393.96 0.90 388.81 0.95L388.81 0.95L388.81 0.95Q382.37 0.95 378.50-3.08L378.50-3.08L378.50-3.08Q374.64-7.11 374.58-14L374.58-14L374.58-14Q374.64-21.06 378.64-25.00L378.64-25.00L378.64-25.00Q382.65-28.95 388.53-28.95L388.53-28.95L388.53-28.95Q393.29-28.95 395.78-25.73L395.78-25.73L395.78-25.73Q398.27-22.51 398.27-17.02L398.27-17.02L398.27-17.02Q398.27-16.07 398.22-15.57L398.22-15.57L397.43-14.95ZM388.47-26.54L388.47-26.54L388.47-26.54Q385.84-26.54 383.63-24.16L383.63-24.16L383.63-24.16Q381.42-21.78 380.74-17.42L380.74-17.42L392.95-18.09L392.95-18.09Q392.95-22.57 391.97-24.56L391.97-24.56L391.97-24.56Q390.99-26.54 388.47-26.54ZM411.49-18.87L411.49-18.87L411.49-2.80L416.92-1.68L416.92-1.68Q417.09-0.62 416.64 0.28L416.64 0.28L416.64 0.28Q411.60 0 408.69 0L408.69 0L408.69 0Q406.45 0 401.86 0.28L401.86 0.28L401.86 0.28Q401.69-0.78 401.97-1.68L401.97-1.68L401.97-1.68Q405.10-2.35 405.89-2.80L405.89-2.80L405.89-24.64L401.24-25.09L401.24-25.09Q401.07-26.21 401.52-27.05L401.52-27.05L401.52-27.05Q406.17-27.72 409.36-28.56L409.36-28.56L409.36-28.56Q409.98-28.56 411.21-27.94L411.21-27.94L411.21-22.85L411.26-22.79L411.26-22.79Q415.41-28.95 419.78-28.95L419.78-28.95L419.78-28.95Q422.02-29.01 423.47-28.11L423.47-28.11L423.47-28.11Q423.64-23.97 422.35-19.71L422.35-19.71L422.35-19.71Q420.95-19.54 419.83-19.94L419.83-19.94L419.05-25.54L419.05-25.54Q414.40-25.54 411.49-18.87Z" fill="#ccc"></path></g></g><style>text {
  font-size: 64px;
  font-family: Arial Black;
  dominant-baseline: central;
  text-anchor: middle;
}</style></svg>